<?xml version="1.0" encoding="UTF-8" standalone="no"?>
<svg width="123px" height="30px" viewBox="0 0 123 30" version="1.1" xmlns="http://www.w3.org/2000/svg" xmlns:xlink="http://www.w3.org/1999/xlink" xmlns:sketch="http://www.bohemiancoding.com/sketch/ns">
    <!-- Generator: Sketch 3.3.3 (12081) - http://www.bohemiancoding.com/sketch -->
    <title>Slice 1</title>
    <desc>Created with Sketch.</desc>
    <defs></defs>
    <g id="Page-1" stroke="none" stroke-width="1" fill="none" fill-rule="evenodd" sketch:type="MSPage">
        <path d="M9.15395605,16.0541483 C9.69258197,16.0541483 10.0906331,15.8914711 10.3456689,15.5670462 C10.6009488,15.2426214 10.7285888,14.6892865 10.7285888,13.9051824 L10.7285888,6.85149895 C10.7285888,6.36439693 10.615348,6.03439461 10.3886223,5.85730885 C10.1609205,5.68254706 9.73480321,5.59446898 9.1112467,5.59446898 L7.06754327,5.59446898 L7.06754327,16.0541483 L9.15395605,16.0541483 L9.15395605,16.0541483 Z M0,0.323495236 L10.1753197,0.323495236 C12.8433117,0.323495236 14.8228291,0.86451313 16.1146039,1.94561934 C17.4056466,3.02649314 18.0519,4.86428073 18.0519,7.45967929 L18.0519,12.5668139 C18.0519,14.3241924 17.9030275,15.7703927 17.6050382,16.9054148 C17.3063168,18.0402045 16.8235791,18.9256333 16.1573133,19.5600744 C15.4898271,20.1956774 14.6173361,20.6488496 13.5391081,20.918429 C12.4599038,21.188938 11.0975976,21.3241924 9.45194528,21.3241924 L7.06754327,21.3241924 L7.06754327,29.6755752 L0,29.6755752 L0,0.323495236 Z M33.5805317,6.40506623 C33.5805317,5.86497792 33.4453261,5.4998838 33.175647,5.31071346 C32.9054799,5.12154311 32.430796,5.02695794 31.7493988,5.02695794 C31.0684897,5.02695794 30.5928296,5.12154311 30.3231506,5.31071346 C30.0534715,5.4998838 29.918754,5.86497792 29.918754,6.40506623 L29.918754,23.5940042 C29.918754,24.1350221 30.0534715,24.5001162 30.3231506,24.6892865 C30.5928296,24.8784569 31.0684897,24.9730421 31.7493988,24.9730421 C32.430796,24.9730421 32.9054799,24.8784569 33.175647,24.6892865 C33.4453261,24.5001162 33.5805317,24.1350221 33.5805317,23.5940042 L33.5805317,6.40506623 Z M22.5961749,6.03997211 C22.5961749,3.74366721 23.3334603,2.16221241 24.8099836,1.2967697 C26.2855306,0.432256565 28.598669,0 31.7493988,0 C34.8998845,0 37.213267,0.432256565 38.6893021,1.2967697 C40.1646051,2.16221241 40.9031108,3.74366721 40.9031108,6.03997211 L40.9031108,23.9590983 C40.9031108,26.2565652 40.1646051,27.83802 38.6893021,28.7023007 C37.213267,29.5677434 34.8998845,30 31.7493988,30 C28.598669,30 26.2855306,29.5677434 24.8099836,28.7023007 C23.3334603,27.83802 22.5961749,26.2565652 22.5961749,23.9590983 L22.5961749,6.03997211 Z M46.796513,0.323495236 L53.8640563,0.323495236 L53.8640563,24.405531 L60.7182969,24.405531 L60.7182969,29.6755752 L46.796513,29.6755752 L46.796513,0.323495236 Z M66.8347639,20.1891703 L60.3631991,0.323495236 L67.3453237,0.323495236 L70.1978202,13.5400883 L70.2832389,13.5400883 L73.1354913,0.323495236 L80.1178599,0.323495236 L73.6465392,20.1891703 L73.6465392,29.6755752 L66.8347639,29.6755752 L66.8347639,20.1891703 Z M91.4853806,4.3781083 L91.40045,4.3781083 L89.7396664,17.5949338 L93.145432,17.5949338 L91.4853806,4.3781083 Z M85.695213,0.323495236 L97.1906176,0.323495236 L101.83105,29.6755752 L94.6358663,29.6755752 L93.7421427,22.6218917 L89.1436879,22.6218917 L88.2499643,29.6755752 L81.0547811,29.6755752 L85.695213,0.323495236 Z M111.760363,22.1345573 C111.760363,23.2970021 111.866771,24.0601906 112.079829,24.4255171 C112.292888,24.7906112 112.881301,24.9730421 113.846776,24.9730421 C114.640682,24.9730421 115.187606,24.8377876 115.485595,24.5672786 C115.783584,24.2979317 115.932457,23.8512666 115.932457,23.230072 L115.932457,20.0671624 C115.932457,19.5270741 115.882914,19.1148036 115.783584,18.8310481 C115.683522,18.5472926 115.499506,18.3109459 115.230315,18.1217755 C114.960148,17.9326052 114.577228,17.7708575 114.080579,17.6344411 C113.583931,17.5003486 112.810281,17.3100163 111.760363,17.06693 C110.312638,16.7425052 109.177546,16.3983267 108.354598,16.0332326 C107.531161,15.6681385 106.88564,15.2161283 106.417302,14.6751104 C105.948963,14.1350221 105.629497,13.4455031 105.459148,12.6074832 C105.288799,11.7706251 105.203868,10.6753428 105.203868,9.32372763 L105.203868,7.53985591 C105.203868,5.81106205 105.352985,4.44527074 105.650974,3.44550314 C105.948963,2.44596793 106.438534,1.70253312 107.119931,1.2151987 C107.80084,0.729258657 108.680165,0.404833837 109.759613,0.243086219 C110.837597,0.080409017 112.299233,0 114.144765,0 C117.181522,0 119.302591,0.432256565 120.509435,1.2967697 C121.715791,2.16221241 122.319091,3.63467348 122.319091,5.71554729 L122.319091,9.24355101 L116.017875,9.24355101 L116.017875,7.82361143 C116.017875,6.55356728 115.911224,5.77039275 115.698654,5.47246107 C115.485595,5.17545898 114.92476,5.02695794 114.017125,5.02695794 C113.136581,5.02695794 112.583312,5.18196607 112.356342,5.49337671 C112.128884,5.80339298 112.015643,6.35115036 112.015643,7.13525447 L112.015643,9.08064141 C112.015643,10 112.179159,10.6149198 112.505214,10.9249361 C112.831514,11.2361143 113.533656,11.5133628 114.613104,11.756449 C116.741494,12.2700442 118.309293,12.722984 119.317478,13.1145712 C120.324686,13.5070881 121.098336,14.0065071 121.637694,14.6146874 C122.176564,15.2226354 122.538495,16.0541483 122.723487,17.1075993 C122.907504,18.1624448 123,19.6888218 123,21.6892865 C123,23.4466651 122.829651,24.8719498 122.488952,25.9660702 C122.148742,27.060423 121.630372,27.8984429 120.935064,28.4801301 C120.239268,29.0608878 119.359699,29.4601441 118.295382,29.6755752 C117.231309,29.8912387 115.89048,30 114.272405,30 C112.313632,30 110.752667,29.8779921 109.589264,29.6349059 C108.425129,29.3918197 107.524084,28.9860562 106.88564,28.4185452 C106.246952,27.8510342 105.806924,27.1010923 105.566043,26.1684871 C105.324186,25.2358819 105.203868,23.9997676 105.203868,22.4589821 L105.203868,20.0264931 L111.760363,20.0264931 L111.760363,22.1345573 Z" id="Logo" fill="#ffffff" sketch:type="MSShapeGroup"></path>
    </g>
</svg>
